<?xml version="1.0" encoding="UTF-8" standalone="no"?>
<!DOCTYPE svg PUBLIC "-//W3C//DTD SVG 1.1//EN" "http://www.w3.org/Graphics/SVG/1.1/DTD/svg11.dtd">
<!-- Created with Vectornator (http://vectornator.io/) -->
<svg height="100%" stroke-miterlimit="10" style="fill-rule:nonzero;clip-rule:evenodd;stroke-linecap:round;stroke-linejoin:round;" version="1.1" viewBox="0 0 250 150" width="100%" xml:space="preserve" xmlns="http://www.w3.org/2000/svg" xmlns:xlink="http://www.w3.org/1999/xlink">
<defs/>
<g id="Layer-1">
<g opacity="1">
<path d="M7.10543e-15 3.37508e-14L7.10543e-15 18.75L250 18.75L250 3.37508e-14L7.10543e-15 3.37508e-14ZM13.5305 36.9434C5.70757 36.9434 1.77636e-15 42.9287 1.77636e-15 51.1523L1.77636e-15 97.8613C1.77636e-15 106.019 5.70758 111.943 13.5305 111.943L59.1637 111.943C67.0953 111.943 72.7962 106.019 72.7962 97.8613L72.7962 72.998L39.1181 72.998L35.3092 81.416L48.571 81.416L48.571 85.625C48.571 88.8487 46.3969 91.1523 43.409 91.1523L29.2853 91.1523C26.3517 91.1523 24.2252 88.8487 24.2252 85.625L24.2252 63.3887C24.2252 60.0992 26.3517 57.7344 29.2853 57.7344L43.5109 57.7344C46.4445 57.7344 48.571 60.038 48.571 63.2617L72.7962 52.998L72.7962 51.1523C72.7962 42.9287 67.0953 36.9434 59.1637 36.9434L13.5305 36.9434ZM104.574 36.9434C96.7515 36.9434 91.0439 42.9287 91.0439 51.1523L91.0439 97.8613C91.0439 106.019 96.7515 111.943 104.574 111.943L148.577 111.943C156.508 111.943 162.209 105.958 162.209 97.7344L162.209 93.2617L137.984 82.998L137.984 85.625C137.984 88.8487 135.867 91.1523 132.933 91.1523L120.329 91.1523C117.396 91.1523 115.269 88.8487 115.269 85.625L115.269 63.3887C115.269 60.0992 117.396 57.7344 120.329 57.7344L132.933 57.7344C135.867 57.7344 137.984 60.038 137.984 63.2617L162.209 52.998L162.209 51.1523C162.209 42.9287 156.508 36.9434 148.577 36.9434L104.574 36.9434ZM192.356 36.9434C184.533 36.9434 178.835 42.9287 178.835 51.1523L178.835 97.8613C178.835 106.019 184.533 111.943 192.356 111.943L236.368 111.943C244.299 111.943 250 105.958 250 97.7344L250 93.2617L225.775 82.998L225.775 85.625C225.775 88.8487 223.648 91.1523 220.715 91.1523L208.111 91.1523C205.177 91.1523 203.06 88.8487 203.06 85.625L203.06 63.3887C203.06 60.0992 205.177 57.7344 208.111 57.7344L220.715 57.7344C223.648 57.7344 225.775 60.038 225.775 63.2617L250 52.998L250 51.1523C250 42.9287 244.299 36.9434 236.368 36.9434L192.356 36.9434ZM7.10543e-15 131.25L7.10543e-15 150L250 150L250 131.25L7.10543e-15 131.25Z" fill="#000000" fill-rule="nonzero" opacity="1" stroke="none"/>
</g>
</g>
</svg>
