<?xml version="1.0" encoding="UTF-8" standalone="no"?>
<!DOCTYPE svg PUBLIC "-//W3C//DTD SVG 1.1//EN" "http://www.w3.org/Graphics/SVG/1.1/DTD/svg11.dtd">
<!-- Created with Vectornator (http://vectornator.io/) -->
<svg height="100%" stroke-miterlimit="10" style="fill-rule:nonzero;clip-rule:evenodd;stroke-linecap:round;stroke-linejoin:round;" version="1.1" viewBox="0 0 843 480" width="100%" xml:space="preserve" xmlns="http://www.w3.org/2000/svg" xmlns:xlink="http://www.w3.org/1999/xlink">
<defs/>
<clipPath id="ArtboardFrame">
<rect height="480" width="843" x="0" y="0"/>
</clipPath>
<g clip-path="url(#ArtboardFrame)" id="Layer-1">
<g opacity="1">
<path d="M3.55271e-14 1.42109e-14L0 60L843 60L843 0L3.55271e-14 1.42109e-14ZM45.625 120C19.2459 120 3.55271e-14 139.153 3.55271e-14 165.469L3.55271e-14 314.938C3.55271e-14 341.043 19.246 360 45.625 360L199.5 360C226.245 360 245.469 341.043 245.469 314.938L245.469 235.375L131.906 235.375L119.063 262.312L163.781 262.312L163.781 275.781C163.781 286.097 156.45 293.469 146.375 293.469L98.75 293.469C88.8579 293.469 81.6875 286.097 81.6875 275.781L81.6875 204.625C81.6875 194.099 88.8578 186.531 98.75 186.531L146.719 186.531C156.611 186.531 163.781 193.903 163.781 204.219L245.469 171.375L245.469 165.469C245.469 139.153 226.245 120 199.5 120L45.625 120ZM352.625 120C326.246 120 307 139.153 307 165.469L307 314.938C307 341.043 326.246 360 352.625 360L501 360C527.745 360 546.969 340.847 546.969 314.531L546.969 300.219L465.281 267.375L465.281 275.781C465.281 286.097 458.142 293.469 448.25 293.469L405.75 293.469C395.858 293.469 388.687 286.097 388.688 275.781L388.688 204.625C388.688 194.099 395.858 186.531 405.75 186.531L448.25 186.531C458.142 186.531 465.281 193.903 465.281 204.219L546.969 171.375L546.969 165.469C546.969 139.153 527.745 120 501 120L352.625 120ZM648.625 120C622.246 120 603.031 139.153 603.031 165.469L603.031 314.938C603.031 341.043 622.246 360 648.625 360L797.031 360C823.777 360 843 340.847 843 314.531L843 300.219L761.313 267.375L761.313 275.781C761.313 286.097 754.142 293.469 744.25 293.469L701.75 293.469C691.858 293.469 684.719 286.097 684.719 275.781L684.719 204.625C684.719 194.099 691.858 186.531 701.75 186.531L744.25 186.531C754.142 186.531 761.313 193.903 761.313 204.219L843 171.375L843 165.469C843 139.153 823.777 120 797.031 120L648.625 120ZM3.55271e-14 420L3.55271e-14 480L843 480L843 420L3.55271e-14 420Z" fill="#ffffff" fill-rule="nonzero" opacity="1" stroke="none"/>
</g>
</g>
</svg>
