<?xml version="1.0" encoding="UTF-8" standalone="no"?>
<!DOCTYPE svg PUBLIC "-//W3C//DTD SVG 1.1//EN" "http://www.w3.org/Graphics/SVG/1.1/DTD/svg11.dtd">
<!-- Created with Vectornator (http://vectornator.io/) -->
<svg height="100%" stroke-miterlimit="10" style="fill-rule:nonzero;clip-rule:evenodd;stroke-linecap:round;stroke-linejoin:round;" version="1.1" viewBox="0 0 1024 1024" width="100%" xml:space="preserve" xmlns="http://www.w3.org/2000/svg" xmlns:xlink="http://www.w3.org/1999/xlink">
<defs/>
<path d="M0 0L1024 0L1024 1024L0 1024L0 0Z" fill="#a0845c" fill-rule="nonzero" opacity="1" stroke="none"/>
<g id="Layer-1">
<path d="M264 136.669C181.5 136.669 119.5 197.17 119.5 280.079L119.5 677.818C119.5 719.833 136 756.245 163 781.454C166.25 784.465 169.633 787.328 173.156 790.032C176.22 792.383 179.427 794.58 182.688 796.684C179.408 794.59 176.23 792.365 173.156 790.032C170.907 788.325 168.633 786.643 166.5 784.815L238 848.678C264.5 872.206 299 887.331 339 887.331L759 887.331C802.5 887.331 840.5 871.085 866.5 843.636C890.5 818.427 904.5 784.255 904.5 745.041L904.5 510.88L829.5 443.656L738.5 443.656L904.5 378.673L904.5 347.302C904.5 303.607 887.5 266.074 859 240.305L784 173.082C758 149.553 723.5 136.669 684 136.669L264 136.669ZM264 142.271L684 142.271C765 142.271 824.5 200.531 824.5 280.079L824.5 307.529L571.5 406.683L571.5 383.155C571.5 365.229 558.5 352.904 540 352.904L409 352.904C390.5 352.904 377.5 365.789 377.5 384.275L377.5 573.622C377.5 591.548 390.5 603.872 409 603.872L539 603.872C558.5 603.872 571.5 591.548 571.5 573.622L571.5 554.575L439.5 554.575L490.5 449.258L824.5 449.258L824.5 677.818C824.5 756.806 765 814.506 684 814.506L264 814.506C183.5 814.506 124.5 756.245 124.5 677.818L124.5 280.079C124.5 201.091 183.5 142.271 264 142.271ZM484 425.73L579 425.73L599 443.656L487.5 443.656L457.5 505.278L457.5 451.499C457.5 443.656 460.5 436.934 465 432.452C469.5 427.971 476 425.73 484 425.73ZM457.5 583.705L473.5 598.27L457.5 598.27L457.5 583.705Z" fill="#ffffff" fill-rule="nonzero" opacity="1" stroke="none"/>
</g>
</svg>
