<?xml version="1.0" encoding="UTF-8" standalone="no"?>
<!DOCTYPE svg PUBLIC "-//W3C//DTD SVG 1.1//EN" "http://www.w3.org/Graphics/SVG/1.1/DTD/svg11.dtd">
<!-- Created with Vectornator (http://vectornator.io/) -->
<svg height="100%" stroke-miterlimit="10" style="fill-rule:nonzero;clip-rule:evenodd;stroke-linecap:round;stroke-linejoin:round;" version="1.1" viewBox="0 0 120 60" width="100%" xml:space="preserve" xmlns="http://www.w3.org/2000/svg" xmlns:xlink="http://www.w3.org/1999/xlink">
<defs/>
<clipPath id="ArtboardFrame">
<rect height="60" width="120" x="0" y="0"/>
</clipPath>
<g clip-path="url(#ArtboardFrame)" id="Layer-1">
<g opacity="1">
<path d="M3.55271e-15 8.88178e-16L1.06581e-14 7.5L120 7.5L120 8.88178e-16L3.55271e-15 8.88178e-16ZM6.49466 14.7773C2.73964 14.7773 8.88178e-15 17.1715 8.88178e-15 20.4609L8.88178e-15 39.1445C8.88178e-15 42.4077 2.73964 44.7773 6.49466 44.7773L28.3986 44.7773C32.2058 44.7773 34.9422 42.4077 34.9422 39.1445L34.9422 29.1992L18.7767 29.1992L16.9484 32.5664L23.3141 32.5664L23.3141 34.25C23.3141 35.5395 22.2705 36.4609 20.8363 36.4609L14.0569 36.4609C12.6488 36.4609 11.6281 35.5395 11.6281 34.25L11.6281 25.3555C11.6281 24.0397 12.6488 23.0938 14.0569 23.0938L20.8852 23.0938C22.2934 23.0938 23.3141 24.0152 23.3141 25.3047L34.9422 21.1992L34.9422 20.4609C34.9422 17.1715 32.2058 14.7773 28.3986 14.7773L6.49466 14.7773ZM50.1957 14.7773C46.4407 14.7773 43.7011 17.1715 43.7011 20.4609L43.7011 39.1445C43.7011 42.4077 46.4407 44.7773 50.1957 44.7773L71.3167 44.7773C75.1239 44.7773 77.8603 42.3832 77.8603 39.0938L77.8603 37.3047L66.2322 33.1992L66.2322 34.25C66.2322 35.5395 65.216 36.4609 63.8078 36.4609L57.758 36.4609C56.3499 36.4609 55.3292 35.5395 55.3292 34.25L55.3292 25.3555C55.3292 24.0397 56.3499 23.0938 57.758 23.0938L63.8078 23.0938C65.216 23.0938 66.2322 24.0152 66.2322 25.3047L77.8603 21.1992L77.8603 20.4609C77.8603 17.1715 75.1239 14.7773 71.3167 14.7773L50.1957 14.7773ZM92.331 14.7773C88.5759 14.7773 85.8408 17.1715 85.8407 20.4609L85.8407 39.1445C85.8407 42.4077 88.5759 44.7773 92.331 44.7773L113.456 44.7773C117.264 44.7773 120 42.3832 120 39.0938L120 37.3047L108.372 33.1992L108.372 34.25C108.372 35.5395 107.351 36.4609 105.943 36.4609L99.8932 36.4609C98.4851 36.4609 97.4689 35.5395 97.4689 34.25L97.4689 25.3555C97.4689 24.0397 98.4851 23.0938 99.8932 23.0938L105.943 23.0938C107.351 23.0938 108.372 24.0152 108.372 25.3047L120 21.1992L120 20.4609C120 17.1715 117.264 14.7773 113.456 14.7773L92.331 14.7773ZM3.55271e-15 52.5L1.06581e-14 60L120 60L120 52.5L3.55271e-15 52.5Z" fill="#ffffff" fill-rule="nonzero" opacity="1" stroke="none"/>
</g>
</g>
</svg>
