<?xml version="1.0" encoding="UTF-8" standalone="no"?>
<!DOCTYPE svg PUBLIC "-//W3C//DTD SVG 1.1//EN" "http://www.w3.org/Graphics/SVG/1.1/DTD/svg11.dtd">
<!-- Created with Vectornator (http://vectornator.io/) -->
<svg height="100%" stroke-miterlimit="10" style="fill-rule:nonzero;clip-rule:evenodd;stroke-linecap:round;stroke-linejoin:round;" version="1.1" viewBox="0 0 250 150" width="100%" xml:space="preserve" xmlns="http://www.w3.org/2000/svg" xmlns:xlink="http://www.w3.org/1999/xlink">
<defs/>
<clipPath id="ArtboardFrame">
<rect height="150" width="250" x="0" y="0"/>
</clipPath>
<g clip-path="url(#ArtboardFrame)" id="Layer-1">
<g opacity="1">
<path d="M2.84217e-14-5.32907e-15L1.77636e-14 18.75L250 18.75L250-8.88178e-15L2.84217e-14-5.32907e-15ZM13.5305 37.5C5.70757 37.5 2.84217e-14 43.4853 2.84217e-14 51.709L2.84217e-14 98.418C2.84217e-14 106.576 5.70758 112.5 13.5305 112.5L59.1637 112.5C67.0953 112.5 72.7962 106.576 72.7962 98.418L72.7962 73.5547L39.1181 73.5547L35.3092 81.9727L48.571 81.9727L48.571 86.1816C48.571 89.4053 46.3969 91.709 43.409 91.709L29.2853 91.709C26.3517 91.709 24.2252 89.4053 24.2252 86.1816L24.2252 63.9453C24.2252 60.6558 26.3517 58.291 29.2853 58.291L43.5109 58.291C46.4445 58.291 48.571 60.5947 48.571 63.8184L72.7962 53.5547L72.7962 51.709C72.7962 43.4853 67.0953 37.5 59.1637 37.5L13.5305 37.5ZM104.574 37.5C96.7515 37.5 91.0439 43.4853 91.0439 51.709L91.0439 98.418C91.0439 106.576 96.7515 112.5 104.574 112.5L148.577 112.5C156.508 112.5 162.209 106.515 162.209 98.291L162.209 93.8184L137.984 83.5547L137.984 86.1816C137.984 89.4053 135.867 91.709 132.933 91.709L120.329 91.709C117.396 91.709 115.269 89.4053 115.269 86.1816L115.269 63.9453C115.269 60.6558 117.396 58.291 120.329 58.291L132.933 58.291C135.867 58.291 137.984 60.5947 137.984 63.8184L162.209 53.5547L162.209 51.709C162.209 43.4853 156.508 37.5 148.577 37.5L104.574 37.5ZM192.356 37.5C184.533 37.5 178.835 43.4853 178.835 51.709L178.835 98.418C178.835 106.576 184.533 112.5 192.356 112.5L236.368 112.5C244.299 112.5 250 106.515 250 98.291L250 93.8184L225.775 83.5547L225.775 86.1816C225.775 89.4053 223.648 91.709 220.715 91.709L208.111 91.709C205.177 91.709 203.06 89.4053 203.06 86.1816L203.06 63.9453C203.06 60.6558 205.177 58.291 208.111 58.291L220.715 58.291C223.648 58.291 225.775 60.5947 225.775 63.8184L250 53.5547L250 51.709C250 43.4853 244.299 37.5 236.368 37.5L192.356 37.5ZM2.84217e-14 131.25L2.84217e-14 150L250 150L250 131.25L2.84217e-14 131.25Z" fill="#a0845c" fill-rule="nonzero" opacity="1" stroke="none"/>
</g>
</g>
</svg>
