<?xml version="1.0" encoding="UTF-8" standalone="no"?>
<!DOCTYPE svg PUBLIC "-//W3C//DTD SVG 1.1//EN" "http://www.w3.org/Graphics/SVG/1.1/DTD/svg11.dtd">
<!-- Created with Vectornator (http://vectornator.io/) -->
<svg height="150.0px" stroke-miterlimit="10" style="fill-rule:nonzero;clip-rule:evenodd;stroke-linecap:round;stroke-linejoin:round;" version="1.1" viewBox="0 0 250 150" width="250.0px" xml:space="preserve" xmlns="http://www.w3.org/2000/svg" xmlns:xlink="http://www.w3.org/1999/xlink">
<defs/>
<path d="M0 0L250 0L250 150L0 150L0 0Z" fill="#a0845c" fill-rule="nonzero" opacity="1" stroke="none"/>
<g id="GENESIS-BROWN">
<g opacity="1">
<g opacity="1">
<g opacity="1">
<path d="M43.9236 93.7611C43.8964 93.5681 43.861 93.3777 43.8176 93.1898C43.7741 93.0019 43.7075 92.8343 43.6178 92.687C43.5281 92.5397 43.414 92.4204 43.2754 92.329C43.1367 92.2376 42.9614 92.1919 42.7494 92.1919C42.5592 92.1919 42.3893 92.2439 42.2398 92.348C42.0904 92.4521 41.9653 92.6007 41.8648 92.7937C41.7642 92.9866 41.6868 93.219 41.6324 93.4907C41.578 93.7624 41.5509 94.0658 41.5509 94.401C41.5509 94.7362 41.578 95.0396 41.6324 95.3113C41.6868 95.583 41.7642 95.8153 41.8648 96.0083C41.9653 96.2013 42.0904 96.3498 42.2398 96.4539C42.3893 96.558 42.5592 96.6101 42.7494 96.6101C42.9886 96.6101 43.1802 96.5669 43.3243 96.4806C43.4683 96.3943 43.5811 96.2787 43.6626 96.134C43.7442 95.9893 43.8013 95.8255 43.8339 95.6427C43.8665 95.4598 43.8937 95.2719 43.9154 95.079L44.6981 95.079C44.6981 95.3938 44.6628 95.6833 44.5922 95.9474C44.5215 96.2114 44.4073 96.44 44.2497 96.6329C44.0921 96.8259 43.8896 96.977 43.6423 97.0862C43.3949 97.1954 43.0973 97.25 42.7494 97.25C42.4722 97.25 42.2099 97.1928 41.9626 97.0786C41.7153 96.9643 41.4992 96.7891 41.3144 96.553C41.1296 96.3168 40.9842 96.0197 40.8782 95.6617C40.7722 95.3037 40.7192 94.8834 40.7192 94.401C40.7192 93.9185 40.7722 93.4983 40.8782 93.1403C40.9842 92.7822 41.1296 92.4852 41.3144 92.249C41.4992 92.0129 41.7153 91.8377 41.9626 91.7234C42.2099 91.6091 42.4722 91.552 42.7494 91.552C43.0973 91.552 43.3909 91.6091 43.63 91.7234C43.8692 91.8377 44.0649 91.9938 44.2171 92.1919C44.3693 92.3899 44.4821 92.6235 44.5555 92.8927C44.6288 93.1619 44.6791 93.4513 44.7063 93.7611L43.9236 93.7611Z" fill="#ffffff" fill-rule="nonzero" opacity="1" stroke="none"/>
<path d="M50.4355 92.1919C50.1964 92.1919 49.9912 92.2503 49.82 92.3671C49.6487 92.4839 49.5074 92.6426 49.396 92.8432C49.2845 93.0438 49.203 93.2787 49.1514 93.5478C49.0997 93.817 49.0739 94.1014 49.0739 94.401C49.0739 94.7006 49.0997 94.985 49.1514 95.2542C49.203 95.5233 49.2845 95.7582 49.396 95.9588C49.5074 96.1594 49.6487 96.3181 49.82 96.4349C49.9912 96.5517 50.1964 96.6101 50.4355 96.6101C50.6747 96.6101 50.8799 96.5517 51.0511 96.4349C51.2224 96.3181 51.3637 96.1594 51.4751 95.9588C51.5866 95.7582 51.6681 95.5233 51.7197 95.2542C51.7714 94.985 51.7972 94.7006 51.7972 94.401C51.7972 94.1014 51.7714 93.817 51.7197 93.5478C51.6681 93.2787 51.5866 93.0438 51.4751 92.8432C51.3637 92.6426 51.2224 92.4839 51.0511 92.3671C50.8799 92.2503 50.6747 92.1919 50.4355 92.1919ZM50.4355 91.552C50.7834 91.552 51.0933 91.6193 51.3651 91.7539C51.6368 91.8884 51.8665 92.0802 52.054 92.329C52.2416 92.5778 52.3843 92.8775 52.4821 93.2279C52.5799 93.5783 52.6289 93.9693 52.6289 94.401C52.6289 94.8326 52.5799 95.2237 52.4821 95.5741C52.3843 95.9245 52.2416 96.2241 52.054 96.473C51.8665 96.7218 51.6368 96.9135 51.3651 97.0481C51.0933 97.1827 50.7834 97.25 50.4355 97.25C50.0877 97.25 49.7778 97.1827 49.506 97.0481C49.2343 96.9135 49.0046 96.7218 48.8171 96.473C48.6295 96.2241 48.4868 95.9245 48.389 95.5741C48.2912 95.2237 48.2422 94.8326 48.2422 94.401C48.2422 93.9693 48.2912 93.5783 48.389 93.2279C48.4868 92.8775 48.6295 92.5778 48.8171 92.329C49.0046 92.0802 49.2343 91.8884 49.506 91.7539C49.7778 91.6193 50.0877 91.552 50.4355 91.552Z" fill="#ffffff" fill-rule="nonzero" opacity="1" stroke="none"/>
<path d="M56.5399 97.1586L56.5399 91.6434L57.3715 91.6434L59.4751 95.5741L59.4915 95.5741L59.4915 91.6434L60.2742 91.6434L60.2742 97.1586L59.5078 97.1586L57.3389 93.0755L57.3226 93.0755L57.3226 97.1586L56.5399 97.1586Z" fill="#ffffff" fill-rule="nonzero" opacity="1" stroke="none"/>
<path d="M64.919 95.4598C64.919 95.6173 64.9353 95.7658 64.9679 95.9055C65.0006 96.0451 65.0563 96.167 65.1351 96.2711C65.2139 96.3752 65.3172 96.4577 65.4449 96.5187C65.5727 96.5796 65.7317 96.6101 65.9219 96.6101C66.2644 96.6101 66.5185 96.5276 66.6843 96.3625C66.8501 96.1975 66.933 95.9677 66.933 95.6731C66.933 95.5005 66.8935 95.3583 66.8147 95.2465C66.7359 95.1348 66.6326 95.0409 66.5049 94.9647C66.3771 94.8885 66.2304 94.8225 66.0646 94.7666C65.8988 94.7108 65.7303 94.6536 65.5591 94.5952C65.3878 94.5368 65.2207 94.4695 65.0576 94.3934C64.8946 94.3172 64.7492 94.222 64.6214 94.1077C64.4937 93.9934 64.3904 93.8525 64.3116 93.6849C64.2328 93.5173 64.1933 93.3117 64.1933 93.0679C64.1933 92.8394 64.2368 92.6324 64.3238 92.4471C64.4108 92.2617 64.529 92.103 64.6785 91.971C64.828 91.8389 65.006 91.7361 65.2125 91.6625C65.4191 91.5888 65.642 91.552 65.8811 91.552C66.4301 91.552 66.8582 91.6917 67.1653 91.971C67.4724 92.2503 67.6342 92.6464 67.6505 93.1593L66.8188 93.1593C66.8188 93.0273 66.7998 92.9029 66.7617 92.7861C66.7237 92.6692 66.6666 92.5664 66.5905 92.4775C66.5144 92.3887 66.4193 92.3188 66.3051 92.2681C66.191 92.2173 66.0578 92.1919 65.9056 92.1919C65.6447 92.1919 65.4327 92.2693 65.2696 92.4242C65.1065 92.5791 65.025 92.7759 65.025 93.0146C65.025 93.233 65.093 93.4018 65.2289 93.5212C65.3647 93.6405 65.5333 93.7383 65.7344 93.8144C65.9355 93.8906 66.1556 93.963 66.3948 94.0315C66.634 94.1001 66.8541 94.194 67.0553 94.3134C67.2564 94.4327 67.4249 94.594 67.5608 94.7971C67.6967 95.0002 67.7646 95.277 67.7646 95.6274C67.7646 95.8966 67.7171 96.1315 67.6219 96.332C67.5268 96.5326 67.3977 96.7015 67.2346 96.8386C67.0716 96.9757 66.8813 97.0786 66.6639 97.1471C66.4465 97.2157 66.2182 97.25 65.979 97.25C65.6474 97.25 65.3634 97.2081 65.1269 97.1243C64.8905 97.0405 64.6948 96.9199 64.5399 96.7624C64.385 96.605 64.2708 96.4158 64.1974 96.1949C64.124 95.974 64.0874 95.729 64.0874 95.4598L64.919 95.4598Z" fill="#ffffff" fill-rule="nonzero" opacity="1" stroke="none"/>
<path d="M74.4478 91.6434L74.4478 92.3442L73.184 92.3442L73.184 97.1586L72.3524 97.1586L72.3524 92.3442L71.0886 92.3442L71.0886 91.6434L74.4478 91.6434Z" fill="#ffffff" fill-rule="nonzero" opacity="1" stroke="none"/>
<path d="M78.1387 97.1586L78.1387 91.6434L79.7857 91.6434C80.0303 91.6434 80.2681 91.6764 80.4991 91.7424C80.7302 91.8085 80.9354 91.9088 81.1147 92.0433C81.2941 92.1779 81.4395 92.348 81.551 92.5537C81.6624 92.7594 81.7181 92.9993 81.7181 93.2736C81.7181 93.492 81.6923 93.6951 81.6406 93.883C81.589 94.0709 81.5075 94.2385 81.396 94.3857C81.2846 94.533 81.1446 94.6536 80.9761 94.7476C80.8076 94.8415 80.6065 94.9037 80.3728 94.9342L82.0524 97.1586L81.0577 97.1586L79.0356 94.34L79.6879 94.34C79.8509 94.34 80.0045 94.321 80.1485 94.2829C80.2926 94.2448 80.4203 94.1864 80.5318 94.1077C80.6432 94.029 80.7302 93.9312 80.7927 93.8144C80.8552 93.6976 80.8864 93.558 80.8864 93.3955C80.8864 93.0654 80.7818 92.8076 80.5725 92.6223C80.3632 92.4369 80.0792 92.3442 79.7205 92.3442L78.9703 92.3442L78.9703 97.1586L78.1387 97.1586Z" fill="#ffffff" fill-rule="nonzero" opacity="1" stroke="none"/>
<path d="M89.1678 91.6434L89.1678 95.5512C89.1678 95.8001 89.1324 96.0286 89.0618 96.2368C88.9911 96.445 88.881 96.6241 88.7315 96.7739C88.5821 96.9237 88.3932 97.0405 88.1649 97.1243C87.9366 97.2081 87.6675 97.25 87.3577 97.25C87.0478 97.25 86.7788 97.2081 86.5505 97.1243C86.3222 97.0405 86.1333 96.9237 85.9838 96.7739C85.8343 96.6241 85.7242 96.445 85.6536 96.2368C85.5829 96.0286 85.5476 95.8001 85.5476 95.5512L85.5476 91.6434L86.3792 91.6434L86.3792 95.6884C86.3792 95.9728 86.4703 96.1873 86.6524 96.332C86.8345 96.4768 87.0696 96.5491 87.3577 96.5491C87.6458 96.5491 87.8808 96.4768 88.0629 96.332C88.245 96.1873 88.3361 95.9728 88.3361 95.6884L88.3361 91.6434L89.1678 91.6434Z" fill="#ffffff" fill-rule="nonzero" opacity="1" stroke="none"/>
<path d="M96.1119 93.7611C96.0847 93.5681 96.0494 93.3777 96.0059 93.1898C95.9624 93.0019 95.8958 92.8343 95.8061 92.687C95.7164 92.5397 95.6023 92.4204 95.4637 92.329C95.3251 92.2376 95.1498 92.1919 94.9378 92.1919C94.7475 92.1919 94.5776 92.2439 94.4282 92.348C94.2787 92.4521 94.1537 92.6007 94.0531 92.7937C93.9525 92.9866 93.8751 93.219 93.8207 93.4907C93.7664 93.7624 93.7392 94.0658 93.7392 94.401C93.7392 94.7362 93.7664 95.0396 93.8207 95.3113C93.8751 95.583 93.9525 95.8153 94.0531 96.0083C94.1537 96.2013 94.2787 96.3498 94.4282 96.4539C94.5776 96.558 94.7475 96.6101 94.9378 96.6101C95.1769 96.6101 95.3685 96.5669 95.5126 96.4806C95.6566 96.3943 95.7694 96.2787 95.851 96.134C95.9325 95.9893 95.9896 95.8255 96.0222 95.6427C96.0548 95.4598 96.082 95.2719 96.1037 95.079L96.8865 95.079C96.8865 95.3938 96.8511 95.6833 96.7805 95.9474C96.7098 96.2114 96.5957 96.44 96.438 96.6329C96.2804 96.8259 96.0779 96.977 95.8306 97.0862C95.5833 97.1954 95.2857 97.25 94.9378 97.25C94.6605 97.25 94.3983 97.1928 94.1509 97.0786C93.9036 96.9643 93.6876 96.7891 93.5027 96.553C93.3179 96.3168 93.1725 96.0197 93.0665 95.6617C92.9605 95.3037 92.9075 94.8834 92.9075 94.401C92.9075 93.9185 92.9605 93.4983 93.0665 93.1403C93.1725 92.7822 93.3179 92.4852 93.5027 92.249C93.6876 92.0129 93.9036 91.8377 94.1509 91.7234C94.3983 91.6091 94.6605 91.552 94.9378 91.552C95.2857 91.552 95.5792 91.6091 95.8184 91.7234C96.0575 91.8377 96.2532 91.9938 96.4054 92.1919C96.5576 92.3899 96.6704 92.6235 96.7438 92.8927C96.8172 93.1619 96.8674 93.4513 96.8946 93.7611L96.1119 93.7611Z" fill="#ffffff" fill-rule="nonzero" opacity="1" stroke="none"/>
<path d="M103.627 91.6434L103.627 92.3442L102.363 92.3442L102.363 97.1586L101.531 97.1586L101.531 92.3442L100.267 92.3442L100.267 91.6434L103.627 91.6434Z" fill="#ffffff" fill-rule="nonzero" opacity="1" stroke="none"/>
<path d="M107.236 97.1586L107.236 91.6434L108.068 91.6434L108.068 97.1586L107.236 97.1586Z" fill="#ffffff" fill-rule="nonzero" opacity="1" stroke="none"/>
<path d="M114.033 92.1919C113.794 92.1919 113.589 92.2503 113.418 92.3671C113.247 92.4839 113.105 92.6426 112.994 92.8432C112.882 93.0438 112.801 93.2787 112.749 93.5478C112.698 93.817 112.672 94.1014 112.672 94.401C112.672 94.7006 112.698 94.985 112.749 95.2542C112.801 95.5233 112.882 95.7582 112.994 95.9588C113.105 96.1594 113.247 96.3181 113.418 96.4349C113.589 96.5517 113.794 96.6101 114.033 96.6101C114.273 96.6101 114.478 96.5517 114.649 96.4349C114.82 96.3181 114.962 96.1594 115.073 95.9588C115.184 95.7582 115.266 95.5233 115.318 95.2542C115.369 94.985 115.395 94.7006 115.395 94.401C115.395 94.1014 115.369 93.817 115.318 93.5478C115.266 93.2787 115.184 93.0438 115.073 92.8432C114.962 92.6426 114.82 92.4839 114.649 92.3671C114.478 92.2503 114.273 92.1919 114.033 92.1919ZM114.033 91.552C114.381 91.552 114.691 91.6193 114.963 91.7539C115.235 91.8884 115.464 92.0802 115.652 92.329C115.839 92.5778 115.982 92.8775 116.08 93.2279C116.178 93.5783 116.227 93.9693 116.227 94.401C116.227 94.8326 116.178 95.2237 116.08 95.5741C115.982 95.9245 115.839 96.2241 115.652 96.473C115.464 96.7218 115.235 96.9135 114.963 97.0481C114.691 97.1827 114.381 97.25 114.033 97.25C113.686 97.25 113.376 97.1827 113.104 97.0481C112.832 96.9135 112.602 96.7218 112.415 96.473C112.227 96.2241 112.085 95.9245 111.987 95.5741C111.889 95.2237 111.84 94.8326 111.84 94.401C111.84 93.9693 111.889 93.5783 111.987 93.2279C112.085 92.8775 112.227 92.5778 112.415 92.329C112.602 92.0802 112.832 91.8884 113.104 91.7539C113.376 91.6193 113.686 91.552 114.033 91.552Z" fill="#ffffff" fill-rule="nonzero" opacity="1" stroke="none"/>
<path d="M120.138 97.1586L120.138 91.6434L120.969 91.6434L123.073 95.5741L123.089 95.5741L123.089 91.6434L123.872 91.6434L123.872 97.1586L123.106 97.1586L120.937 93.0755L120.92 93.0755L120.92 97.1586L120.138 97.1586Z" fill="#ffffff" fill-rule="nonzero" opacity="1" stroke="none"/>
<path d="M136.244 93.7611C136.217 93.5681 136.181 93.3777 136.138 93.1898C136.094 93.0019 136.028 92.8343 135.938 92.687C135.848 92.5397 135.734 92.4204 135.596 92.329C135.457 92.2376 135.282 92.1919 135.07 92.1919C134.879 92.1919 134.71 92.2439 134.56 92.348C134.411 92.4521 134.286 92.6007 134.185 92.7937C134.084 92.9866 134.007 93.219 133.953 93.4907C133.898 93.7624 133.871 94.0658 133.871 94.401C133.871 94.7362 133.898 95.0396 133.953 95.3113C134.007 95.583 134.084 95.8153 134.185 96.0083C134.286 96.2013 134.411 96.3498 134.56 96.4539C134.71 96.558 134.879 96.6101 135.07 96.6101C135.309 96.6101 135.5 96.5669 135.644 96.4806C135.789 96.3943 135.901 96.2787 135.983 96.134C136.064 95.9893 136.121 95.8255 136.154 95.6427C136.187 95.4598 136.214 95.2719 136.236 95.079L137.018 95.079C137.018 95.3938 136.983 95.6833 136.912 95.9474C136.842 96.2114 136.728 96.44 136.57 96.6329C136.412 96.8259 136.21 96.977 135.962 97.0862C135.715 97.1954 135.418 97.25 135.07 97.25C134.792 97.25 134.53 97.1928 134.283 97.0786C134.036 96.9643 133.819 96.7891 133.635 96.553C133.45 96.3168 133.304 96.0197 133.198 95.6617C133.092 95.3037 133.039 94.8834 133.039 94.401C133.039 93.9185 133.092 93.4983 133.198 93.1403C133.304 92.7822 133.45 92.4852 133.635 92.249C133.819 92.0129 134.036 91.8377 134.283 91.7234C134.53 91.6091 134.792 91.552 135.07 91.552C135.418 91.552 135.711 91.6091 135.95 91.7234C136.189 91.8377 136.385 91.9938 136.537 92.1919C136.69 92.3899 136.802 92.6235 136.876 92.8927C136.949 93.1619 136.999 93.4513 137.027 93.7611L136.244 93.7611Z" fill="#ffffff" fill-rule="nonzero" opacity="1" stroke="none"/>
<path d="M142.756 92.1919C142.517 92.1919 142.311 92.2503 142.14 92.3671C141.969 92.4839 141.828 92.6426 141.716 92.8432C141.605 93.0438 141.523 93.2787 141.472 93.5478C141.42 93.817 141.394 94.1014 141.394 94.401C141.394 94.7006 141.42 94.985 141.472 95.2542C141.523 95.5233 141.605 95.7582 141.716 95.9588C141.828 96.1594 141.969 96.3181 142.14 96.4349C142.311 96.5517 142.517 96.6101 142.756 96.6101C142.995 96.6101 143.2 96.5517 143.371 96.4349C143.543 96.3181 143.684 96.1594 143.795 95.9588C143.907 95.7582 143.988 95.5233 144.04 95.2542C144.092 94.985 144.117 94.7006 144.117 94.401C144.117 94.1014 144.092 93.817 144.04 93.5478C143.988 93.2787 143.907 93.0438 143.795 92.8432C143.684 92.6426 143.543 92.4839 143.371 92.3671C143.2 92.2503 142.995 92.1919 142.756 92.1919ZM142.756 91.552C143.104 91.552 143.413 91.6193 143.685 91.7539C143.957 91.8884 144.187 92.0802 144.374 92.329C144.562 92.5778 144.704 92.8775 144.802 93.2279C144.9 93.5783 144.949 93.9693 144.949 94.401C144.949 94.8326 144.9 95.2237 144.802 95.5741C144.704 95.9245 144.562 96.2241 144.374 96.473C144.187 96.7218 143.957 96.9135 143.685 97.0481C143.413 97.1827 143.104 97.25 142.756 97.25C142.408 97.25 142.098 97.1827 141.826 97.0481C141.554 96.9135 141.325 96.7218 141.137 96.473C140.95 96.2241 140.807 95.9245 140.709 95.5741C140.611 95.2237 140.562 94.8326 140.562 94.401C140.562 93.9693 140.611 93.5783 140.709 93.2279C140.807 92.8775 140.95 92.5778 141.137 92.329C141.325 92.0802 141.554 91.8884 141.826 91.7539C142.098 91.6193 142.408 91.552 142.756 91.552Z" fill="#ffffff" fill-rule="nonzero" opacity="1" stroke="none"/>
<path d="M148.811 97.1586L148.811 91.6434L150.458 91.6434C150.703 91.6434 150.941 91.6764 151.172 91.7424C151.403 91.8085 151.608 91.9088 151.787 92.0433C151.967 92.1779 152.112 92.348 152.223 92.5537C152.335 92.7594 152.391 92.9993 152.391 93.2736C152.391 93.492 152.365 93.6951 152.313 93.883C152.261 94.0709 152.18 94.2385 152.069 94.3857C151.957 94.533 151.817 94.6536 151.649 94.7476C151.48 94.8415 151.279 94.9037 151.045 94.9342L152.725 97.1586L151.73 97.1586L149.708 94.34L150.36 94.34C150.523 94.34 150.677 94.321 150.821 94.2829C150.965 94.2448 151.093 94.1864 151.204 94.1077C151.316 94.029 151.403 93.9312 151.465 93.8144C151.528 93.6976 151.559 93.558 151.559 93.3955C151.559 93.0654 151.454 92.8076 151.245 92.6223C151.036 92.4369 150.752 92.3442 150.393 92.3442L149.643 92.3442L149.643 97.1586L148.811 97.1586Z" fill="#ffffff" fill-rule="nonzero" opacity="1" stroke="none"/>
<path d="M157.166 94.3553L158.03 94.3553C158.373 94.3553 158.639 94.2677 158.829 94.0925C159.019 93.9173 159.115 93.6697 159.115 93.3498C159.115 93.0298 159.021 92.7822 158.833 92.607C158.646 92.4318 158.381 92.3442 158.038 92.3442L157.166 92.3442L157.166 94.3553ZM156.334 97.1586L156.334 91.6434L158.177 91.6434C158.438 91.6434 158.677 91.684 158.894 91.7653C159.112 91.8465 159.298 91.9608 159.453 92.1081C159.608 92.2554 159.729 92.4344 159.816 92.6451C159.903 92.8559 159.946 93.0908 159.946 93.3498C159.946 93.6088 159.903 93.8436 159.816 94.0544C159.729 94.2651 159.608 94.4442 159.453 94.5914C159.298 94.7387 159.112 94.853 158.894 94.9342C158.677 95.0155 158.435 95.0561 158.169 95.0561L157.166 95.0561L157.166 97.1586L156.334 97.1586Z" fill="#ffffff" fill-rule="nonzero" opacity="1" stroke="none"/>
<path d="M165.773 92.1919C165.534 92.1919 165.329 92.2503 165.158 92.3671C164.986 92.4839 164.845 92.6426 164.734 92.8432C164.622 93.0438 164.541 93.2787 164.489 93.5478C164.437 93.817 164.412 94.1014 164.412 94.401C164.412 94.7006 164.437 94.985 164.489 95.2542C164.541 95.5233 164.622 95.7582 164.734 95.9588C164.845 96.1594 164.986 96.3181 165.158 96.4349C165.329 96.5517 165.534 96.6101 165.773 96.6101C166.012 96.6101 166.218 96.5517 166.389 96.4349C166.56 96.3181 166.701 96.1594 166.813 95.9588C166.924 95.7582 167.006 95.5233 167.058 95.2542C167.109 94.985 167.135 94.7006 167.135 94.401C167.135 94.1014 167.109 93.817 167.058 93.5478C167.006 93.2787 166.924 93.0438 166.813 92.8432C166.701 92.6426 166.56 92.4839 166.389 92.3671C166.218 92.2503 166.012 92.1919 165.773 92.1919ZM165.773 91.552C166.121 91.552 166.431 91.6193 166.703 91.7539C166.975 91.8884 167.204 92.0802 167.392 92.329C167.579 92.5778 167.722 92.8775 167.82 93.2279C167.918 93.5783 167.967 93.9693 167.967 94.401C167.967 94.8326 167.918 95.2237 167.82 95.5741C167.722 95.9245 167.579 96.2241 167.392 96.473C167.204 96.7218 166.975 96.9135 166.703 97.0481C166.431 97.1827 166.121 97.25 165.773 97.25C165.425 97.25 165.116 97.1827 164.844 97.0481C164.572 96.9135 164.342 96.7218 164.155 96.473C163.967 96.2241 163.825 95.9245 163.727 95.5741C163.629 95.2237 163.58 94.8326 163.58 94.401C163.58 93.9693 163.629 93.5783 163.727 93.2279C163.825 92.8775 163.967 92.5778 164.155 92.329C164.342 92.0802 164.572 91.8884 164.844 91.7539C165.116 91.6193 165.425 91.552 165.773 91.552Z" fill="#ffffff" fill-rule="nonzero" opacity="1" stroke="none"/>
<path d="M171.829 97.1586L171.829 91.6434L173.476 91.6434C173.72 91.6434 173.958 91.6764 174.189 91.7424C174.42 91.8085 174.625 91.9088 174.805 92.0433C174.984 92.1779 175.13 92.348 175.241 92.5537C175.352 92.7594 175.408 92.9993 175.408 93.2736C175.408 93.492 175.382 93.6951 175.331 93.883C175.279 94.0709 175.197 94.2385 175.086 94.3857C174.975 94.533 174.835 94.6536 174.666 94.7476C174.498 94.8415 174.297 94.9037 174.063 94.9342L175.742 97.1586L174.748 97.1586L172.726 94.34L173.378 94.34C173.541 94.34 173.695 94.321 173.839 94.2829C173.983 94.2448 174.11 94.1864 174.222 94.1077C174.333 94.029 174.42 93.9312 174.483 93.8144C174.545 93.6976 174.576 93.558 174.576 93.3955C174.576 93.0654 174.472 92.8076 174.263 92.6223C174.053 92.4369 173.769 92.3442 173.41 92.3442L172.66 92.3442L172.66 97.1586L171.829 97.1586Z" fill="#ffffff" fill-rule="nonzero" opacity="1" stroke="none"/>
<path d="M180.208 94.8276L181.39 94.8276L180.803 92.8622L180.787 92.8622L180.208 94.8276ZM178.757 97.1586L180.387 91.6434L181.186 91.6434L182.882 97.1586L182.099 97.1586L181.586 95.5284L180.02 95.5284L179.547 97.1586L178.757 97.1586Z" fill="#ffffff" fill-rule="nonzero" opacity="1" stroke="none"/>
<path d="M189.035 91.6434L189.035 92.3442L187.772 92.3442L187.772 97.1586L186.94 97.1586L186.94 92.3442L185.676 92.3442L185.676 91.6434L189.035 91.6434Z" fill="#ffffff" fill-rule="nonzero" opacity="1" stroke="none"/>
<path d="M192.645 97.1586L192.645 91.6434L193.476 91.6434L193.476 97.1586L192.645 97.1586Z" fill="#ffffff" fill-rule="nonzero" opacity="1" stroke="none"/>
<path d="M199.442 92.1919C199.203 92.1919 198.998 92.2503 198.827 92.3671C198.655 92.4839 198.514 92.6426 198.403 92.8432C198.291 93.0438 198.21 93.2787 198.158 93.5478C198.106 93.817 198.081 94.1014 198.081 94.401C198.081 94.7006 198.106 94.985 198.158 95.2542C198.21 95.5233 198.291 95.7582 198.403 95.9588C198.514 96.1594 198.655 96.3181 198.827 96.4349C198.998 96.5517 199.203 96.6101 199.442 96.6101C199.681 96.6101 199.887 96.5517 200.058 96.4349C200.229 96.3181 200.37 96.1594 200.482 95.9588C200.593 95.7582 200.675 95.5233 200.726 95.2542C200.778 94.985 200.804 94.7006 200.804 94.401C200.804 94.1014 200.778 93.817 200.726 93.5478C200.675 93.2787 200.593 93.0438 200.482 92.8432C200.37 92.6426 200.229 92.4839 200.058 92.3671C199.887 92.2503 199.681 92.1919 199.442 92.1919ZM199.442 91.552C199.79 91.552 200.1 91.6193 200.372 91.7539C200.643 91.8884 200.873 92.0802 201.061 92.329C201.248 92.5778 201.391 92.8775 201.489 93.2279C201.587 93.5783 201.635 93.9693 201.635 94.401C201.635 94.8326 201.587 95.2237 201.489 95.5741C201.391 95.9245 201.248 96.2241 201.061 96.473C200.873 96.7218 200.643 96.9135 200.372 97.0481C200.1 97.1827 199.79 97.25 199.442 97.25C199.094 97.25 198.784 97.1827 198.513 97.0481C198.241 96.9135 198.011 96.7218 197.824 96.473C197.636 96.2241 197.493 95.9245 197.396 95.5741C197.298 95.2237 197.249 94.8326 197.249 94.401C197.249 93.9693 197.298 93.5783 197.396 93.2279C197.493 92.8775 197.636 92.5778 197.824 92.329C198.011 92.0802 198.241 91.8884 198.513 91.7539C198.784 91.6193 199.094 91.552 199.442 91.552Z" fill="#ffffff" fill-rule="nonzero" opacity="1" stroke="none"/>
<path d="M205.546 97.1586L205.546 91.6434L206.378 91.6434L208.482 95.5741L208.498 95.5741L208.498 91.6434L209.281 91.6434L209.281 97.1586L208.514 97.1586L206.346 93.0755L206.329 93.0755L206.329 97.1586L205.546 97.1586Z" fill="#ffffff" fill-rule="nonzero" opacity="1" stroke="none"/>
</g>
<g opacity="1">
<path d="M20.043 83.9321L38.3038 83.9321C41.4777 83.9321 43.7603 81.6952 43.7603 78.6134L43.7603 69.2188L30.2821 69.2188L28.7603 72.4L34.0647 72.4L34.0647 73.9906C34.0647 75.2085 33.1951 76.0783 31.9995 76.0783L26.3473 76.0783C25.1734 76.0783 24.3256 75.2085 24.3256 73.9906L24.3256 65.5901C24.3256 64.3475 25.1734 63.4527 26.3473 63.4527L32.0429 63.4527C33.2168 63.4527 34.0647 64.3226 34.0647 65.5404L43.7603 61.6633L43.7603 60.9674C43.7603 57.8607 41.4777 55.599 38.3038 55.599L20.043 55.599C16.9126 55.599 14.63 57.8607 14.63 60.9674L14.63 78.6134C14.63 81.6952 16.9126 83.9321 20.043 83.9321Z" fill="#ffffff" fill-rule="nonzero" opacity="1" stroke="none"/>
<path d="M50.7823 83.9321L78.1735 83.9321L78.1735 76.6003L60.6953 76.6003L60.6953 73.1208L72.0866 73.1208L72.0866 66.4103L60.6953 66.4103L60.6953 62.9308L78.1735 62.9308L78.1735 55.599L50.7823 55.599L50.7823 83.9321Z" fill="#ffffff" fill-rule="nonzero" opacity="1" stroke="none"/>
<path d="M104.652 55.599L104.652 72.0024L95.3259 55.599L84.5433 55.599L84.5433 83.9321L93.5868 83.9321L93.5868 67.7772L102.891 83.9321L113.674 83.9321L113.674 55.599L104.652 55.599Z" fill="#ffffff" fill-rule="nonzero" opacity="1" stroke="none"/>
<path d="M121.565 83.9321L148.956 83.9321L148.956 76.6003L131.478 76.6003L131.478 73.1208L142.869 73.1208L142.869 66.4103L131.478 66.4103L131.478 62.9308L148.956 62.9308L148.956 55.599L121.565 55.599L121.565 83.9321Z" fill="#ffffff" fill-rule="nonzero" opacity="1" stroke="none"/>
<path d="M159.478 83.9321L177.739 83.9321C180.87 83.9321 183.152 81.6704 183.152 78.5637L183.152 73.4439C183.152 69.3182 180.304 66.3357 176.391 66.3357L165.718 66.3357C164.457 66.3357 163.739 65.6896 163.739 64.5463L163.739 63.9995C163.739 62.8562 164.457 62.2101 165.718 62.2101L171.478 62.2101C172.739 62.2101 173.457 62.8562 173.457 63.9995L173.457 65.5901L183.152 61.713L183.152 60.9674C183.152 57.8607 180.87 55.599 177.696 55.599L159.435 55.599C156.283 55.599 154.022 57.8607 154.022 60.9674L154.022 66.0872C154.022 70.2129 156.87 73.1953 160.783 73.1953L171.457 73.1953C172.718 73.1953 173.435 73.8415 173.435 74.9848L173.435 75.5316C173.435 76.6748 172.718 77.321 171.457 77.321L165.696 77.321C164.435 77.321 163.718 76.6748 163.718 75.5316L163.718 73.9409L154.022 77.8181L154.022 78.5637C154.022 81.6704 156.305 83.9321 159.478 83.9321Z" fill="#ffffff" fill-rule="nonzero" opacity="1" stroke="none"/>
<path d="M189.739 83.9321L199.652 83.9321L199.652 55.599L189.739 55.599L189.739 83.9321Z" fill="#ffffff" fill-rule="nonzero" opacity="1" stroke="none"/>
<path d="M211.696 83.9321L229.957 83.9321C233.087 83.9321 235.37 81.6704 235.37 78.5637L235.37 73.4439C235.37 69.3182 232.522 66.3357 228.609 66.3357L217.935 66.3357C216.674 66.3357 215.957 65.6896 215.957 64.5463L215.957 63.9995C215.957 62.8562 216.674 62.2101 217.935 62.2101L223.696 62.2101C224.957 62.2101 225.674 62.8562 225.674 63.9995L225.674 65.5901L235.37 61.713L235.37 60.9674C235.37 57.8607 233.087 55.599 229.914 55.599L211.653 55.599C208.501 55.599 206.24 57.8607 206.24 60.9674L206.24 66.0872C206.24 70.2129 209.088 73.1953 213.001 73.1953L223.674 73.1953C224.935 73.1953 225.653 73.8415 225.653 74.9848L225.653 75.5316C225.653 76.6748 224.935 77.321 223.674 77.321L217.914 77.321C216.653 77.321 215.935 76.6748 215.935 75.5316L215.935 73.9409L206.24 77.8181L206.24 78.5637C206.24 81.6704 208.522 83.9321 211.696 83.9321Z" fill="#ffffff" fill-rule="nonzero" opacity="1" stroke="none"/>
</g>
</g>
</g>
</g>
</svg>
